<svg width="47" height="47" viewBox="0 0 47 47" fill="none" xmlns="http://www.w3.org/2000/svg">
<g clip-path="url(#clip0_113_120)">
<path d="M15.9464 2.20312C15.9464 0.982227 14.8239 0 13.4286 0C12.0333 0 10.9107 0.982227 10.9107 2.20312V5.875H6.71429C3.01094 5.875 0 8.50957 0 11.75V13.2188V17.625V41.125C0 44.3654 3.01094 47 6.71429 47H40.2857C43.9891 47 47 44.3654 47 41.125V17.625V13.2188V11.75C47 8.50957 43.9891 5.875 40.2857 5.875H36.0893V2.20312C36.0893 0.982227 34.9667 0 33.5714 0C32.1761 0 31.0536 0.982227 31.0536 2.20312V5.875H15.9464V2.20312ZM5.03571 17.625H41.9643V41.125C41.9643 41.9328 41.2089 42.5938 40.2857 42.5938H6.71429C5.79107 42.5938 5.03571 41.9328 5.03571 41.125V17.625Z" fill="white"/>
</g>
<defs>
<clipPath id="clip0_113_120">
<rect width="47" height="47" fill="white"/>
</clipPath>
</defs>
</svg>
