<svg width="47" height="47" viewBox="0 0 47 47" fill="none" xmlns="http://www.w3.org/2000/svg">
<path d="M24.2344 10.2812H13.9531V11.75H24.2344V10.2812Z" fill="white"/>
<path d="M24.2344 5.875H13.9531V7.34375H24.2344V5.875Z" fill="white"/>
<path d="M28.6407 0H12.4844C10.8687 0 9.54688 1.32184 9.54688 2.9375V36.7188C9.54688 38.3343 10.8687 39.6562 12.4844 39.6562H24.2344V47L27.9062 43.3282L31.5782 47V39.6562H34.5157C36.1313 39.6562 37.4532 38.3343 37.4532 36.7188V10.2812L28.6407 0ZM28.6407 2.20316L35.5439 10.2813H30.1095C29.3751 10.2813 28.6407 9.54699 28.6407 8.81258V2.20316ZM30.1094 43.475L27.9062 41.2718L25.7032 43.475V37.7469C26.4375 38.0407 27.172 38.1875 27.9064 38.1875C28.6408 38.1875 29.3751 38.0407 30.1095 37.7469V43.475H30.1094ZM27.9063 36.7188C25.85 36.7188 24.2345 35.1032 24.2345 33.0469C24.2345 30.9907 25.85 29.375 27.9063 29.375C29.9625 29.375 31.5781 30.9906 31.5781 33.0468C31.5781 35.1031 29.9625 36.7188 27.9063 36.7188ZM35.9844 36.7188C35.9844 37.4531 35.3969 38.1875 34.5156 38.1875H31.5781V36.5719C32.4594 35.6906 33.0469 34.3688 33.0469 33.0469C33.0469 30.2563 30.6969 27.9063 27.9062 27.9063C25.1155 27.9063 22.7655 30.2563 22.7655 33.0469C22.7655 34.5157 23.353 35.6907 24.2343 36.5719V38.1875H12.4843C11.75 38.1875 11.0155 37.6 11.0155 36.7188V2.9375C11.0155 2.20316 11.603 1.46875 12.4843 1.46875H27.1718V8.8125C27.1718 10.4282 28.4937 11.75 30.1093 11.75H35.9843L35.9844 36.7188Z" fill="white"/>
<path d="M33.0469 14.6875H13.9531V16.1562H33.0469V14.6875Z" fill="white"/>
<path d="M33.0469 23.5H13.9531V24.9688H33.0469V23.5Z" fill="white"/>
<path d="M33.0469 19.0938H13.9531V20.5625H33.0469V19.0938Z" fill="white"/>
</svg>
