<svg width="47" height="47" viewBox="0 0 47 47" fill="none" xmlns="http://www.w3.org/2000/svg">
<path d="M42.6429 41.125V42.125H43.6429C45.0771 42.125 46 43.1112 46 44.0625C46 45.0138 45.0771 46 43.6429 46H40.2857H10.0714C4.93384 46 1 42.3792 1 38.1875V8.8125C1 4.6208 4.93384 1 10.0714 1H40.2857H43.6429C45.0771 1 46 1.98623 46 2.9375V32.3125C46 33.2638 45.0771 34.25 43.6429 34.25H42.6429V35.25V41.125ZM37.9286 35.25V34.25H36.9286H10.0714C7.79183 34.25 5.71429 35.8892 5.71429 38.1875C5.71429 40.4858 7.79183 42.125 10.0714 42.125H36.9286H37.9286V41.125V35.25ZM15.1071 10.75C13.7613 10.75 12.4286 11.7374 12.4286 13.2188C12.4286 14.7001 13.7613 15.6875 15.1071 15.6875H35.25C36.5959 15.6875 37.9286 14.7001 37.9286 13.2188C37.9286 11.7374 36.5959 10.75 35.25 10.75H15.1071ZM35.25 16.625H15.1071C13.7613 16.625 12.4286 17.6124 12.4286 19.0938C12.4286 20.5751 13.7613 21.5625 15.1071 21.5625H35.25C36.5959 21.5625 37.9286 20.5751 37.9286 19.0938C37.9286 17.6124 36.5959 16.625 35.25 16.625Z" stroke="white" stroke-width="2"/>
</svg>
