<svg width="47" height="47" viewBox="0 0 47 47" fill="none" xmlns="http://www.w3.org/2000/svg">
<path d="M23.4119 1.85068C23.3721 1.85794 23.3329 1.86775 23.2944 1.88006C23.1681 1.90438 23.0481 1.95437 22.9419 2.02693L2.49687 9.45881C2.31624 9.52494 2.16024 9.64489 2.04993 9.80248C1.93962 9.96007 1.88031 10.1477 1.88 10.3401V35.4851C1.84525 35.6106 1.83698 35.742 1.85572 35.871C1.87446 35.9999 1.91979 36.1235 1.98884 36.234C2.05789 36.3445 2.14916 36.4394 2.25684 36.5128C2.36452 36.5861 2.48627 36.6363 2.61437 36.6601H2.64375C2.67262 36.6713 2.70203 36.6811 2.73187 36.6894L23.2062 45.0319C23.3224 45.0812 23.4473 45.1066 23.5734 45.1066C23.6996 45.1066 23.8245 45.0812 23.9406 45.0319L44.5325 36.6013C44.5623 36.593 44.5918 36.5832 44.6206 36.5719C44.7077 36.5259 44.787 36.4664 44.8556 36.3957C44.8654 36.3958 44.8752 36.3958 44.885 36.3957C45.0112 36.2724 45.1001 36.1161 45.1417 35.9447C45.1832 35.7733 45.1757 35.5937 45.12 35.4263V10.3401C45.1197 10.1477 45.0604 9.96007 44.9501 9.80248C44.8397 9.64489 44.6838 9.52494 44.5031 9.45881L24.0287 2.02693C24.0095 2.01646 23.9899 2.00666 23.97 1.99756L23.9406 1.96818C23.9021 1.95587 23.8629 1.94606 23.8231 1.93881C23.8039 1.92833 23.7843 1.91853 23.7644 1.90943C23.7546 1.90928 23.7448 1.90928 23.735 1.90943C23.7158 1.89896 23.6962 1.88916 23.6762 1.88006C23.59 1.85778 23.5009 1.84789 23.4119 1.85068ZM22.56 4.1713V27.5538L3.76 34.3688V10.9863L22.56 4.1713ZM24.44 4.1713L43.24 10.9863V34.3688L38.54 32.6651V16.2738C38.5397 16.0814 38.4804 15.8938 38.3701 15.7362C38.2597 15.5786 38.1038 15.4587 37.9231 15.3926L29.4631 12.2788C29.314 12.2194 29.1522 12.1992 28.9931 12.2201C28.7701 12.2553 28.5672 12.3698 28.4215 12.5424C28.2759 12.715 28.1972 12.9342 28.2 13.1601V28.9051L24.44 27.5538V4.1713ZM17.7425 12.2201C17.662 12.2294 17.583 12.2492 17.5075 12.2788L9.0475 15.6569C8.87236 15.7278 8.72263 15.8498 8.61783 16.0069C8.51304 16.1641 8.45803 16.3493 8.46 16.5382V25.9382C8.45839 26.0929 8.49502 26.2457 8.56662 26.3829C8.63822 26.5201 8.74259 26.6375 8.87045 26.7246C8.99831 26.8118 9.14572 26.8661 9.29959 26.8826C9.45346 26.8992 9.60903 26.8774 9.7525 26.8194L18.2125 23.5001C18.3876 23.4292 18.5374 23.3072 18.6422 23.15C18.747 22.9928 18.802 22.8077 18.8 22.6188V13.1601C18.801 13.0261 18.7734 12.8934 18.719 12.771C18.6646 12.6486 18.5846 12.5392 18.4845 12.4502C18.3844 12.3611 18.2663 12.2946 18.1384 12.2549C18.0104 12.2152 17.8754 12.2033 17.7425 12.2201ZM30.08 14.5113L36.66 16.9201V31.9894L30.08 29.6101V14.5113ZM16.92 14.5407V21.9726L10.34 24.5869V17.1551L16.92 14.5407ZM23.5 29.1988L41.5656 35.7494L23.5587 43.1226L5.46375 35.7494L23.5 29.1988Z" fill="white"/>
</svg>
