<svg width="50" height="41" viewBox="0 0 50 41" fill="none" xmlns="http://www.w3.org/2000/svg">
<path d="M7.5 10.25C7.5 7.53153 8.55357 4.9244 10.4289 3.00216C12.3043 1.07991 14.8478 0 17.5 0C20.1522 0 22.6957 1.07991 24.5711 3.00216C26.4464 4.9244 27.5 7.53153 27.5 10.25C27.5 12.9685 26.4464 15.5756 24.5711 17.4978C22.6957 19.4201 20.1522 20.5 17.5 20.5C14.8478 20.5 12.3043 19.4201 10.4289 17.4978C8.55357 15.5756 7.5 12.9685 7.5 10.25ZM0 38.6217C0 30.734 6.23438 24.3438 13.9297 24.3438H21.0703C28.7656 24.3438 35 30.734 35 38.6217C35 39.935 33.9609 41 32.6797 41H2.32031C1.03906 41 0 39.935 0 38.6217ZM39.375 24.9844V19.8594H34.375C33.3359 19.8594 32.5 19.0025 32.5 17.9375C32.5 16.8725 33.3359 16.0156 34.375 16.0156H39.375V10.8906C39.375 9.82559 40.2109 8.96875 41.25 8.96875C42.2891 8.96875 43.125 9.82559 43.125 10.8906V16.0156H48.125C49.1641 16.0156 50 16.8725 50 17.9375C50 19.0025 49.1641 19.8594 48.125 19.8594H43.125V24.9844C43.125 26.0494 42.2891 26.9062 41.25 26.9062C40.2109 26.9062 39.375 26.0494 39.375 24.9844Z" fill="white"/>
</svg>
